<svg width="20" height="25" viewBox="0 0 20 25" fill="none" xmlns="http://www.w3.org/2000/svg">
<path d="M18.9478 19.8711C18.4562 18.562 17.7428 17.373 16.8473 16.3701C15.9545 15.3644 14.897 14.5625 13.733 14.0088C13.7226 14.0029 13.7122 14 13.7018 13.9941C15.3254 12.6758 16.3808 10.5283 16.3808 8.10547C16.3808 4.0918 13.4881 0.839844 9.9177 0.839844C6.34735 0.839844 3.45458 4.0918 3.45458 8.10547C3.45458 10.5283 4.51005 12.6758 6.13365 13.9971C6.12322 14.0029 6.1128 14.0059 6.10238 14.0117C4.93484 14.5654 3.88719 15.3594 2.98809 16.373C2.09344 17.3767 1.38014 18.5655 0.887577 19.874C0.403683 21.155 0.142708 22.5285 0.118779 23.9199C0.118083 23.9512 0.122962 23.9823 0.133127 24.0114C0.143293 24.0405 0.15854 24.0671 0.177969 24.0895C0.197399 24.1118 0.220618 24.1296 0.246259 24.1418C0.2719 24.1539 0.299443 24.1602 0.327266 24.1602H1.89092C2.00559 24.1602 2.09681 24.0576 2.09941 23.9316C2.15153 21.6699 2.95942 19.5518 4.38756 17.9463C5.86522 16.2852 7.82761 15.3711 9.9177 15.3711C12.0078 15.3711 13.9702 16.2852 15.4478 17.9463C16.876 19.5518 17.6839 21.6699 17.736 23.9316C17.7386 24.0605 17.8298 24.1602 17.9445 24.1602H19.5081C19.536 24.1602 19.5635 24.1539 19.5891 24.1418C19.6148 24.1296 19.638 24.1118 19.6574 24.0895C19.6769 24.0671 19.6921 24.0405 19.7023 24.0114C19.7124 23.9823 19.7173 23.9512 19.7166 23.9199C19.6906 22.5195 19.4326 21.1572 18.9478 19.8711ZM9.9177 13.1445C8.7215 13.1445 7.59567 12.6201 6.74869 11.668C5.90171 10.7158 5.43522 9.4502 5.43522 8.10547C5.43522 6.76074 5.90171 5.49512 6.74869 4.54297C7.59567 3.59082 8.7215 3.06641 9.9177 3.06641C11.1139 3.06641 12.2397 3.59082 13.0867 4.54297C13.9337 5.49512 14.4002 6.76074 14.4002 8.10547C14.4002 9.4502 13.9337 10.7158 13.0867 11.668C12.2397 12.6201 11.1139 13.1445 9.9177 13.1445Z" fill="white"/>
</svg>
