<svg width="23" height="27" viewBox="0 0 23 27" fill="none" xmlns="http://www.w3.org/2000/svg">
<path d="M2.31023 10.8C2.35496 10.1735 2.60795 9.58894 3.01884 9.16271C3.42972 8.73648 3.96834 8.49987 4.52743 8.5H17.9351C18.4942 8.49987 19.0328 8.73648 19.4437 9.16271C19.8546 9.58894 20.1076 10.1735 20.1523 10.8L21.0452 23.3C21.0698 23.644 21.0307 23.99 20.9305 24.3162C20.8303 24.6423 20.6711 24.9417 20.4629 25.1953C20.2547 25.4489 20.0021 25.6514 19.7209 25.7899C19.4397 25.9283 19.1361 25.9999 18.8291 26H3.63343C3.32645 25.9999 3.02281 25.9283 2.74164 25.7899C2.46046 25.6514 2.20783 25.4489 1.99966 25.1953C1.79149 24.9417 1.63228 24.6423 1.53206 24.3162C1.43185 23.99 1.39279 23.644 1.41735 23.3L2.31023 10.8V10.8Z" stroke="white" stroke-width="2" stroke-linecap="round" stroke-linejoin="round"/>
<path d="M15.679 12.25V6C15.679 4.67392 15.2104 3.40215 14.3763 2.46447C13.5422 1.52678 12.4109 1 11.2313 1C10.0517 1 8.92036 1.52678 8.08625 2.46447C7.25214 3.40215 6.78354 4.67392 6.78354 6V12.25" stroke="white" stroke-width="2" stroke-linecap="round" stroke-linejoin="round"/>
</svg>
