<svg width="102" height="93" viewBox="0 0 102 93" fill="none" xmlns="http://www.w3.org/2000/svg">
<path d="M59.359 45.494C58.9457 48.0567 58.739 50.206 58.739 51.942C58.739 56.902 59.979 60.7873 62.459 63.598C64.9803 66.3673 68.845 67.752 74.053 67.752C80.3357 67.752 85.3577 65.7473 89.119 61.738C92.8803 57.6873 95.3603 52.2727 96.559 45.494C96.9723 43.014 97.179 40.8853 97.179 39.108C97.179 34.1893 95.9183 30.3247 93.397 27.514C90.917 24.7033 87.073 23.298 81.865 23.298C75.5823 23.298 70.5603 25.3027 66.799 29.312C63.0377 33.3213 60.5577 38.7153 59.359 45.494ZM82.981 45.494C82.4437 48.4287 81.6997 50.702 80.749 52.314C79.8397 53.926 78.3723 54.732 76.347 54.732C74.9003 54.732 73.867 54.3187 73.247 53.492C72.6683 52.6653 72.379 51.4873 72.379 49.958C72.379 48.718 72.5443 47.23 72.875 45.494C73.4123 42.5593 74.1357 40.3067 75.045 38.736C75.9957 37.124 77.5043 36.318 79.571 36.318C82.175 36.318 83.477 37.8887 83.477 41.03C83.477 42.3527 83.3117 43.8407 82.981 45.494Z" fill="#0085FF"/>
<path d="M41.2965 45.494C40.8832 48.0567 40.6765 50.206 40.6765 51.942C40.6765 56.902 41.9165 60.7873 44.3965 63.598C46.9178 66.3673 50.7825 67.752 55.9905 67.752C62.2732 67.752 67.2952 65.7473 71.0565 61.738C74.8178 57.6873 77.2978 52.2727 78.4965 45.494C78.9098 43.014 79.1165 40.8853 79.1165 39.108C79.1165 34.1893 77.8558 30.3247 75.3345 27.514C72.8545 24.7033 69.0105 23.298 63.8025 23.298C57.5198 23.298 52.4978 25.3027 48.7365 29.312C44.9752 33.3213 42.4952 38.7153 41.2965 45.494ZM64.9185 45.494C64.3812 48.4287 63.6372 50.702 62.6865 52.314C61.7772 53.926 60.3098 54.732 58.2845 54.732C56.8378 54.732 55.8045 54.3187 55.1845 53.492C54.6058 52.6653 54.3165 51.4873 54.3165 49.958C54.3165 48.718 54.4818 47.23 54.8125 45.494C55.3498 42.5593 56.0732 40.3067 56.9825 38.736C57.9332 37.124 59.4418 36.318 61.5085 36.318C64.1125 36.318 65.4145 37.8887 65.4145 41.03C65.4145 42.3527 65.2492 43.8407 64.9185 45.494Z" fill="#FFB800"/>
<path d="M21.109 45.494C20.6957 48.0567 20.489 50.206 20.489 51.942C20.489 56.902 21.729 60.7873 24.209 63.598C26.7303 66.3673 30.595 67.752 35.803 67.752C42.0857 67.752 47.1077 65.7473 50.869 61.738C54.6303 57.6873 57.1103 52.2727 58.309 45.494C58.7223 43.014 58.929 40.8853 58.929 39.108C58.929 34.1893 57.6683 30.3247 55.147 27.514C52.667 24.7033 48.823 23.298 43.615 23.298C37.3323 23.298 32.3103 25.3027 28.549 29.312C24.7877 33.3213 22.3077 38.7153 21.109 45.494ZM44.731 45.494C44.1937 48.4287 43.4497 50.702 42.499 52.314C41.5897 53.926 40.1223 54.732 38.097 54.732C36.6503 54.732 35.617 54.3187 34.997 53.492C34.4183 52.6653 34.129 51.4873 34.129 49.958C34.129 48.718 34.2943 47.23 34.625 45.494C35.1623 42.5593 35.8857 40.3067 36.795 38.736C37.7457 37.124 39.2543 36.318 41.321 36.318C43.925 36.318 45.227 37.8887 45.227 41.03C45.227 42.3527 45.0617 43.8407 44.731 45.494Z" fill="#3DBF00"/>
<path d="M22.692 21.686C27.032 21.686 30.3593 22.6987 32.674 24.724C34.9887 26.708 36.146 29.312 36.146 32.536C36.146 33.0733 36.0633 33.8793 35.898 34.954C35.402 37.6407 34.3273 39.7487 32.674 41.278C31.062 42.8073 29.326 43.8613 27.466 44.44L27.404 44.688C29.2227 45.3907 30.6487 46.5067 31.682 48.036C32.7153 49.5653 33.232 51.4873 33.232 53.802C33.232 54.8353 33.1493 55.8273 32.984 56.778C32.364 60.3327 30.566 63.164 27.59 65.272C24.614 67.38 20.7493 68.434 15.996 68.434C11.036 68.434 7.23333 67.3593 4.588 65.21C1.94267 63.0193 0.62 59.7333 0.62 55.352C0.62 54.484 0.682 53.554 0.806 52.562H14.198C13.9913 53.3887 13.888 54.0293 13.888 54.484C13.888 56.22 14.8387 57.088 16.74 57.088C17.484 57.088 18.1453 56.8607 18.724 56.406C19.3027 55.9513 19.654 55.352 19.778 54.608C19.8607 54.112 19.902 53.7607 19.902 53.554C19.902 51.5287 18.414 50.516 15.438 50.516H13.144L15.128 39.418H17.36C20.1707 39.5833 21.7827 38.4673 22.196 36.07C22.2373 35.8633 22.258 35.574 22.258 35.202C22.258 34.458 22.072 33.9207 21.7 33.59C21.3693 33.218 20.9353 33.032 20.398 33.032C18.8687 33.032 17.8767 34.3133 17.422 36.876H4.03C5.022 31.9573 7.10933 28.196 10.292 25.592C13.516 22.988 17.6493 21.686 22.692 21.686Z" fill="#FF0000"/>
</svg>
