<svg width="41" height="44" viewBox="0 0 41 44" fill="none" xmlns="http://www.w3.org/2000/svg">
<path d="M19.3468 0.177195C19.5543 0.0608214 19.783 0.000244141 20.0148 0.000244141C20.2467 0.000244141 20.4754 0.0608214 20.6828 0.177195L39.6168 10.8197C39.7404 10.8902 39.8442 10.9979 39.9167 11.1307C39.9893 11.2635 40.0276 11.4162 40.0276 11.572C40.0276 11.7279 39.9893 11.8806 39.9167 12.0134C39.8442 12.1462 39.7404 12.2538 39.6168 12.3244L20.6828 22.9641C20.4754 23.0804 20.2467 23.141 20.0148 23.141C19.783 23.141 19.5543 23.0804 19.3468 22.9641L0.412808 12.3244C0.288465 12.2546 0.18388 12.1472 0.110781 12.0143C0.0376828 11.8814 -0.0010376 11.7283 -0.0010376 11.572C-0.0010376 11.4158 0.0376828 11.2626 0.110781 11.1298C0.18388 10.9969 0.288465 10.8895 0.412808 10.8197L19.3468 0.177195Z" fill="white"/>
<path d="M35.3262 18.495L39.6169 20.9081C40.1673 21.2175 40.1673 22.1006 39.6169 22.41L20.6828 33.0525C20.4754 33.1689 20.2467 33.2294 20.0148 33.2294C19.783 33.2294 19.5543 33.1689 19.3468 33.0525L0.412817 22.41C0.28913 22.3399 0.185181 22.2326 0.112551 22.1C0.0399218 21.9674 0.00146484 21.8148 0.00146484 21.6591C0.00146484 21.5033 0.0399218 21.3507 0.112551 21.2181C0.185181 21.0855 0.28913 20.9782 0.412817 20.9081L4.706 18.495L18.0084 25.9734C19.2718 26.6822 20.7604 26.6822 22.0213 25.9734L35.3237 18.495H35.3262Z" fill="#FFC43D"/>
<path d="M35.3262 29L39.6169 31.4131C40.1673 31.7225 40.1673 32.6056 39.6169 32.915L20.6828 43.5575C20.4754 43.6739 20.2467 43.7345 20.0148 43.7345C19.783 43.7345 19.5543 43.6739 19.3468 43.5575L0.412817 32.915C0.28913 32.8449 0.185181 32.7376 0.112551 32.605C0.0399218 32.4724 0.00146484 32.3198 0.00146484 32.1641C0.00146484 32.0084 0.0399218 31.8557 0.112551 31.7231C0.185181 31.5905 0.28913 31.4832 0.412817 31.4131L4.706 29L18.0084 36.4784C19.2718 37.1872 20.7604 37.1872 22.0213 36.4784L35.3237 29H35.3262Z" fill="#1B9AAA"/>
</svg>
