<svg width="26" height="25" viewBox="0 0 26 25" fill="none" xmlns="http://www.w3.org/2000/svg">
<path d="M19.2349 16.1625C20.7479 14.098 21.4255 11.5383 21.1323 8.99555C20.839 6.45283 19.5965 4.1146 17.6533 2.44864C15.7101 0.782694 13.2095 -0.088115 10.6519 0.0104368C8.09419 0.108989 5.66804 1.16963 3.85879 2.98017C2.04955 4.79071 0.99064 7.21762 0.893918 9.77537C0.797196 12.3331 1.66979 14.8331 3.33714 16.7751C5.00448 18.7171 7.3436 19.9579 9.88653 20.2494C12.4295 20.5408 14.9887 19.8613 17.0521 18.3469H17.0506C17.0974 18.4094 17.1474 18.4688 17.2037 18.5266L23.2193 24.5422C23.5123 24.8354 23.9097 25.0002 24.3242 25.0003C24.7387 25.0005 25.1363 24.836 25.4295 24.543C25.7227 24.25 25.8875 23.8525 25.8876 23.4381C25.8877 23.0236 25.7232 22.626 25.4302 22.3328L19.4146 16.3172C19.3588 16.2606 19.2987 16.2084 19.2349 16.1609V16.1625ZM19.6381 10.1563C19.6381 11.2848 19.4158 12.4023 18.9839 13.4449C18.552 14.4876 17.919 15.435 17.121 16.233C16.323 17.031 15.3756 17.664 14.333 18.0958C13.2904 18.5277 12.1729 18.75 11.0443 18.75C9.91576 18.75 8.79827 18.5277 7.75563 18.0958C6.71298 17.664 5.76562 17.031 4.96761 16.233C4.16961 15.435 3.5366 14.4876 3.10472 13.4449C2.67284 12.4023 2.45056 11.2848 2.45056 10.1563C2.45056 7.87705 3.35597 5.6912 4.96761 4.07956C6.57925 2.46792 8.76511 1.5625 11.0443 1.5625C13.3235 1.5625 15.5094 2.46792 17.121 4.07956C18.7327 5.6912 19.6381 7.87705 19.6381 10.1563Z" fill="white"/>
</svg>
